<svg width="81" height="81" viewBox="0 0 81 81" fill="none" xmlns="http://www.w3.org/2000/svg">
<g opacity="0.1">
<path d="M0.473633 40.7337C0.473633 18.68 18.3819 0.605957 40.6013 0.605957C62.655 0.605957 80.729 18.5142 80.729 40.7337C80.729 62.9531 62.8208 80.8613 40.6013 80.8613C18.3819 80.6955 0.473633 62.7873 0.473633 40.7337Z" fill="black"/>
</g>
<path d="M40 80C62.0914 80 80 62.0914 80 40C80 17.9086 62.0914 0 40 0C17.9086 0 0 17.9086 0 40C0 62.0914 17.9086 80 40 80Z" fill="url(#paint0_linear_4305_239)"/>
<path d="M43.8938 50.8096C44.2277 50.8096 44.4984 50.5389 44.4984 50.205C44.4984 49.8711 44.2277 49.6004 43.8938 49.6004C43.5599 49.6004 43.2892 49.8711 43.2892 50.205C43.2892 50.5389 43.5599 50.8096 43.8938 50.8096Z" fill="#333333"/>
<path d="M54.236 48.3104C53.1913 48.3104 52.3415 49.1603 52.3415 50.205C52.3415 51.2496 53.1913 52.0995 54.236 52.0995C55.2807 52.0995 56.1305 51.2496 56.1305 50.205C56.1305 49.1603 55.2807 48.3104 54.236 48.3104ZM54.236 50.8902C53.8581 50.8902 53.5508 50.5828 53.5508 50.205C53.5508 49.8271 53.8582 49.5197 54.236 49.5197C54.6139 49.5197 54.9212 49.8271 54.9212 50.205C54.9212 50.5828 54.6139 50.8902 54.236 50.8902Z" fill="#333333"/>
<path d="M58.5992 43.8735H51.7986C52.9813 42.5541 53.4745 40.6978 53.0176 38.9144L51.4615 32.8423C51.3787 32.5189 51.0494 32.324 50.7258 32.4067C50.4023 32.4896 50.2072 32.819 50.2901 33.1425L51.8462 39.2146C52.2953 40.9673 51.5631 42.8113 50.0583 43.7849L46.8357 39.7488C46.2031 38.9565 45.2587 38.5021 44.2448 38.5021H40H35.7553C34.7414 38.5021 33.7971 38.9566 33.1644 39.7488L29.9418 43.7849C28.437 42.8113 27.7049 40.9673 28.154 39.2146L30.1292 31.5063C30.4474 30.2644 31.3543 29.255 32.5551 28.806L34.2157 28.1851C34.6003 28.0411 35.0367 28.136 35.3271 28.4264L35.3273 28.4265L36.9828 30.082C37.4012 30.5004 37.9575 30.7308 38.5492 30.7308H40H41.4509C42.0426 30.7308 42.5989 30.5004 43.0174 30.082L44.6729 28.4265C44.9634 28.136 45.3995 28.0413 45.7846 28.1851L47.4451 28.806C48.4214 29.1711 49.199 29.8936 49.6347 30.8404C49.7366 31.0619 49.9555 31.1925 50.1844 31.1925C50.2689 31.1925 50.3548 31.1747 50.4367 31.137C50.7401 30.9974 50.8729 30.6383 50.7333 30.335C50.1633 29.0963 49.146 28.1511 47.8686 27.6734L46.2082 27.0525C45.4655 26.7748 44.6341 26.9118 44.0197 27.3943H35.9806C35.3662 26.9117 34.5348 26.7747 33.7921 27.0525L32.1316 27.6734C30.5606 28.2608 29.3742 29.5815 28.9578 31.2062L26.9826 38.9144C26.5256 40.6978 27.0188 42.5542 28.2015 43.8735H21.4009C20.6284 43.8735 20 44.502 20 45.2744V49.1167V51.2934V55.1356C20 55.908 20.6284 56.5364 21.4009 56.5364H23.8562V56.9389C23.8562 57.2728 24.1269 57.5435 24.4608 57.5435C24.7947 57.5435 25.0654 57.2728 25.0654 56.9389V56.5364H54.9346V56.9389C54.9346 57.2728 55.2053 57.5435 55.5392 57.5435C55.8731 57.5435 56.1438 57.2728 56.1438 56.9389V56.5364H58.5991C59.3716 56.5364 60 55.908 60 55.1356V45.2744C60.0001 44.502 59.3716 43.8735 58.5992 43.8735ZM42.7857 28.6036L42.1623 29.2269C41.9723 29.417 41.7196 29.5216 41.4509 29.5216H40H38.5492C38.2805 29.5216 38.0278 29.417 37.8378 29.227L37.2144 28.6036H42.7857ZM58.5992 55.3271H21.4009C21.2953 55.3271 21.2093 55.2412 21.2093 55.1356V51.2934V49.7213H40.4368V50.6888H23.1979C22.864 50.6888 22.5933 50.9595 22.5933 51.2934C22.5933 51.6273 22.864 51.898 23.1979 51.898H40.5254C41.1434 51.898 41.6461 51.3953 41.6461 50.7772V49.6328C41.6461 49.0148 41.1434 48.512 40.5254 48.512H21.2093V45.2745C21.2093 45.1688 21.2952 45.0829 21.4009 45.0829H29.9913C29.9974 45.0831 30.0036 45.0841 30.0097 45.0841C30.0168 45.0841 30.0238 45.0831 30.031 45.0829H32.8184C33.1523 45.0829 33.423 44.8122 33.423 44.4783C33.423 44.1444 33.1523 43.8737 32.8184 43.8737H31.4185L34.1093 40.5035C34.5112 40.0002 35.1111 39.7115 35.7553 39.7115H40H44.2448C44.889 39.7115 45.4889 40.0002 45.8908 40.5035L48.5817 43.8737H35.4577C35.1238 43.8737 34.8531 44.1444 34.8531 44.4783C34.8531 44.8122 35.1238 45.0829 35.4577 45.0829H49.969C49.9762 45.0831 49.9832 45.0841 49.9903 45.0841C49.9965 45.0841 50.0026 45.083 50.0087 45.0829H58.5991C58.7048 45.0829 58.7907 45.1688 58.7907 45.2745V55.1356H58.7908C58.7908 55.2412 58.7048 55.3271 58.5992 55.3271Z" fill="#333333"/>
<path d="M33.7088 29.2136C32.5813 29.2136 31.6638 30.131 31.6638 31.2585C31.6638 32.3861 32.5812 33.3034 33.7088 33.3034C34.8364 33.3034 35.7536 32.3861 35.7536 31.2585C35.7536 30.131 34.8363 29.2136 33.7088 29.2136ZM33.7088 32.0941C33.248 32.0941 32.8731 31.7193 32.8731 31.2585C32.8731 30.7977 33.248 30.4228 33.7088 30.4228C34.1696 30.4228 34.5444 30.7977 34.5444 31.2585C34.5443 31.7193 34.1695 32.0941 33.7088 32.0941Z" fill="#333333"/>
<path d="M43.6537 33.1939C42.5262 33.1939 41.6088 34.1113 41.6088 35.2388C41.6088 36.3664 42.5261 37.2837 43.6537 37.2837C44.7813 37.2837 45.6986 36.3663 45.6986 35.2388C45.6986 34.1113 44.7812 33.1939 43.6537 33.1939ZM43.6537 36.0745C43.1929 36.0745 42.8181 35.6996 42.8181 35.2388C42.8181 34.7781 43.1929 34.4032 43.6537 34.4032C44.1145 34.4032 44.4893 34.7781 44.4893 35.2388C44.4893 35.6996 44.1145 36.0745 43.6537 36.0745Z" fill="#333333"/>
<path d="M46.5649 30.5877C46.8988 30.5877 47.1695 30.317 47.1695 29.9831C47.1695 29.6492 46.8988 29.3785 46.5649 29.3785C46.231 29.3785 45.9603 29.6492 45.9603 29.9831C45.9603 30.317 46.231 30.5877 46.5649 30.5877Z" fill="#333333"/>
<path d="M46.5649 33.7986C46.8988 33.7986 47.1695 33.5279 47.1695 33.194C47.1695 32.8601 46.8988 32.5894 46.5649 32.5894C46.231 32.5894 45.9603 32.8601 45.9603 33.194C45.9603 33.5279 46.231 33.7986 46.5649 33.7986Z" fill="#333333"/>
<path d="M44.8383 32.2181C45.1722 32.2181 45.4429 31.9474 45.4429 31.6135C45.4429 31.2796 45.1722 31.0089 44.8383 31.0089C44.5044 31.0089 44.2337 31.2796 44.2337 31.6135C44.2337 31.9474 44.5044 32.2181 44.8383 32.2181Z" fill="#333333"/>
<path d="M48.2915 32.2181C48.6254 32.2181 48.8961 31.9474 48.8961 31.6135C48.8961 31.2796 48.6254 31.0089 48.2915 31.0089C47.9576 31.0089 47.6869 31.2796 47.6869 31.6135C47.6869 31.9474 47.9576 32.2181 48.2915 32.2181Z" fill="#333333"/>
<path d="M38.3382 34.6343H37.5026V33.7986C37.5026 33.4647 37.2319 33.194 36.898 33.194C36.5641 33.194 36.2934 33.4647 36.2934 33.7986V34.6343H35.4578C35.1239 34.6343 34.8531 34.905 34.8531 35.2389C34.8531 35.5728 35.1239 35.8435 35.4578 35.8435H36.2934V36.6791C36.2934 37.013 36.5641 37.2837 36.898 37.2837C37.2319 37.2837 37.5026 37.013 37.5026 36.6791V35.8435H38.3382C38.6721 35.8435 38.9428 35.5728 38.9428 35.2389C38.9428 34.905 38.6721 34.6343 38.3382 34.6343Z" fill="#333333"/>
<defs>
<linearGradient id="paint0_linear_4305_239" x1="-8.41169" y1="-2.71187" x2="85.9836" y2="88.5676" gradientUnits="userSpaceOnUse">
<stop stop-color="#FFDF00"/>
<stop offset="1" stop-color="#FFB800"/>
</linearGradient>
</defs>
</svg>
