<svg width="80" height="80" viewBox="0 0 80 80" fill="none" xmlns="http://www.w3.org/2000/svg">
<path d="M0 40C0 18.0165 17.8512 0 40 0C62.1487 0 80 17.8512 80 40C80 61.9835 62.1487 80 40 80C17.8512 80 0 61.9835 0 40Z" fill="url(#paint0_linear_4305_243)"/>
<path d="M0 40C0 18.0165 17.8512 0 40 0C62.1487 0 80 17.8512 80 40C80 61.9835 62.1487 80 40 80C17.8512 80 0 61.9835 0 40Z" fill="url(#paint1_linear_4305_243)"/>
<g clip-path="url(#clip0_4305_243)">
<path d="M35.5981 57.79C35.5981 58.135 35.3241 58.4178 34.9791 58.4178C34.6341 58.4178 34.3513 58.135 34.3513 57.79V49.9275C34.3513 49.3972 34.5809 48.9193 34.9525 48.5747C35.3153 48.2387 35.8019 48.0353 36.3413 48.0353H43.655C44.1944 48.0353 44.6897 48.2384 45.0431 48.5747C45.4144 48.9197 45.645 49.3972 45.645 49.9275V57.79C45.645 58.135 45.3706 58.4178 45.0256 58.4178C44.6806 58.4178 44.3978 58.135 44.3978 57.79V49.9275C44.3978 49.7597 44.3269 49.6003 44.2031 49.4856C44.0619 49.3618 43.8759 49.2822 43.655 49.2822H40.6213V57.7903C40.6213 58.1353 40.3475 58.4181 40.0025 58.4181C39.6578 58.4181 39.3747 58.1353 39.3747 57.7903V49.2818H36.3413C36.1291 49.2818 35.9431 49.3618 35.8019 49.4853C35.6781 49.6 35.5984 49.7593 35.5984 49.9272L35.5981 57.79Z" fill="#333333"/>
<path d="M33.8384 39.6513H37.924C38.269 39.6513 38.5431 39.9257 38.5431 40.2703V44.0735C38.5431 44.4185 38.269 44.6919 37.924 44.6919H33.8384C33.4934 44.6919 33.2194 44.4182 33.2194 44.0735V40.2703C33.219 39.9257 33.4934 39.6513 33.8384 39.6513ZM33.8384 32.0897H37.924C38.269 32.0897 38.5431 32.3641 38.5431 32.7088V36.5116C38.5431 36.8566 38.269 37.1307 37.924 37.1307H33.8384C33.4934 37.1307 33.2194 36.8563 33.2194 36.5116V32.7091C33.219 32.3641 33.4934 32.0897 33.8384 32.0897ZM37.2962 33.3372H34.4662V35.8838H37.2962V33.3372ZM44.1234 35.8838C44.4684 35.8838 44.7422 36.1669 44.7422 36.5119C44.7422 36.8569 44.4681 37.131 44.1234 37.131H42.0806C41.7356 37.131 41.4525 36.8566 41.4525 36.5119V32.7091C41.4525 32.3641 41.7353 32.09 42.0806 32.09C42.4256 32.09 42.6997 32.3644 42.6997 32.7091V35.8838H44.1234ZM42.0806 39.6513H46.1575C46.5025 39.6513 46.7853 39.9257 46.7853 40.2703V44.0735C46.7853 44.4185 46.5025 44.6919 46.1575 44.6919H42.0806C41.7356 44.6919 41.4525 44.4182 41.4525 44.0735V40.2703C41.4525 39.9257 41.7356 39.6513 42.0806 39.6513ZM45.5387 40.8985H42.7V43.4453H45.5387V40.8985ZM37.2962 40.8985H34.4662V43.4453H37.2962V40.8985Z" fill="#333333"/>
<path d="M50.5084 40.1556C50.3319 40.4475 49.9519 40.5534 49.6597 40.3766C49.5622 40.3147 49.4828 40.2353 49.4297 40.1469L44.0703 31.0641C43.7959 30.5953 43.5662 29.9941 43.425 29.4634C43.2831 28.915 43.2125 28.3494 43.2125 27.7653C43.2125 25.8991 43.9644 24.2103 45.1934 22.9806C46.4141 21.7606 48.1031 21 49.9781 21C51.8441 21 53.5331 21.7606 54.7625 22.9809C55.9828 24.2106 56.7437 25.8994 56.7437 27.7656C56.7437 28.3494 56.6641 28.9153 56.5228 29.4637C56.3809 30.03 56.1597 30.5603 55.8859 31.0556L50.5084 40.1556ZM49.9781 38.6166L54.8066 30.4359C55.0278 30.0381 55.2047 29.6047 55.3197 29.1537C55.4344 28.7112 55.4962 28.2516 55.4962 27.7653C55.4962 26.2441 54.8778 24.8647 53.8781 23.8653C52.8787 22.8662 51.4991 22.2469 49.9781 22.2469C48.4481 22.2469 47.0684 22.8659 46.0694 23.8653C45.0784 24.8647 44.4597 26.2441 44.4597 27.7653C44.4597 28.2519 44.5212 28.7112 44.6278 29.1537C44.7425 29.5956 44.9194 30.0203 45.1316 30.4181L49.9781 38.6166Z" fill="#333333"/>
<path d="M49.9781 24.1572C50.9687 24.1572 51.8706 24.5644 52.5247 25.2185C53.1794 25.8641 53.5862 26.766 53.5862 27.7654C53.5862 28.7644 53.1791 29.6669 52.5247 30.3213C51.8703 30.9669 50.9687 31.3735 49.9781 31.3735C48.9787 31.3735 48.0766 30.9669 47.4222 30.3213C46.7678 29.6669 46.37 28.7647 46.37 27.7654C46.37 26.766 46.7678 25.8641 47.4222 25.2185C48.0766 24.5641 48.9784 24.1572 49.9781 24.1572ZM51.6406 26.0941C51.2159 25.6697 50.6237 25.4044 49.9781 25.4044C49.3237 25.4044 48.7309 25.6697 48.3066 26.0941C47.8819 26.5275 47.6169 27.111 47.6169 27.7657C47.6169 28.42 47.8819 29.0125 48.3066 29.4372C48.7306 29.8616 49.3237 30.1269 49.9781 30.1269C50.6237 30.1269 51.2159 29.8616 51.6406 29.4372C52.0737 29.0129 52.3391 28.42 52.3391 27.7657C52.3391 27.111 52.0737 26.5275 51.6406 26.0941Z" fill="#333333"/>
<path d="M52.8606 51.3782C52.5156 51.3782 52.2422 51.0954 52.2422 50.7504C52.2422 50.4054 52.5159 50.131 52.8606 50.131H55.1247C55.9031 50.131 56.5931 50.5822 56.8937 51.2985L59.8209 58.4266C59.9447 58.7272 59.9887 59.0282 59.9534 59.3288C59.8916 59.9391 59.4844 60.5047 58.945 60.7879C58.6709 60.9294 58.3703 61.0004 58.0522 61.0004H21.9525C21.6341 61.0004 21.3334 60.9294 21.0594 60.7879C20.5109 60.5047 20.1131 59.9391 20.0425 59.3288C20.0159 59.0282 20.06 58.7272 20.175 58.4266L23.1112 51.2985C23.4119 50.5822 24.1016 50.131 24.88 50.131H27.1262C27.4712 50.131 27.7453 50.4057 27.7453 50.7504C27.7453 51.095 27.4712 51.3782 27.1262 51.3782H24.88C24.6059 51.3782 24.3669 51.5107 24.2609 51.776L21.3337 58.9038C21.2894 59.0016 21.2719 59.0985 21.2806 59.196C21.3072 59.3994 21.4487 59.585 21.6256 59.6825C21.7228 59.7269 21.8287 59.7535 21.9528 59.7535H58.0528C58.1766 59.7535 58.2825 59.7269 58.3712 59.6825C58.5572 59.585 58.6984 59.3997 58.7162 59.196C58.725 59.0985 58.7162 59.0016 58.6719 58.9038L55.7447 51.776C55.6384 51.5104 55.3997 51.3782 55.1256 51.3782H52.8606Z" fill="#333333"/>
<path d="M49.3503 42.835C49.3503 42.49 49.6331 42.2069 49.9781 42.2069C50.3231 42.2069 50.5972 42.49 50.5972 42.835V57.7897C50.5972 58.1347 50.3228 58.4175 49.9781 58.4175H30.0266C29.6816 58.4175 29.4075 58.1347 29.4075 57.7897V30.4541C29.4075 29.9234 29.6375 29.4456 30.0091 29.1009C30.3628 28.7647 30.8581 28.5525 31.3975 28.5525H41.2403C41.5853 28.5525 41.8594 28.8353 41.8594 29.1806C41.8594 29.5256 41.585 29.8084 41.2403 29.8084H31.3975C31.1763 29.8084 30.9906 29.8794 30.8494 30.0119C30.7256 30.1266 30.6547 30.2859 30.6547 30.4541V57.1703H49.3506L49.3503 42.835Z" fill="#333333"/>
</g>
<defs>
<linearGradient id="paint0_linear_4305_243" x1="11.6212" y1="11.783" x2="68.0739" y2="68.2357" gradientUnits="userSpaceOnUse">
<stop stop-color="#FFDB65"/>
<stop offset="1" stop-color="#FF8C33"/>
</linearGradient>
<linearGradient id="paint1_linear_4305_243" x1="-8.41169" y1="-2.71187" x2="85.9836" y2="88.5676" gradientUnits="userSpaceOnUse">
<stop stop-color="#FFDF00"/>
<stop offset="1" stop-color="#FFB800"/>
</linearGradient>
<clipPath id="clip0_4305_243">
<rect width="40" height="40" fill="white" transform="translate(20 21)"/>
</clipPath>
</defs>
</svg>
