<svg width="80" height="80" viewBox="0 0 80 80" fill="none" xmlns="http://www.w3.org/2000/svg">
<path d="M0 40C0 18.0165 17.8512 0 40 0C62.1487 0 80 17.8513 80 40C80 61.9835 62.1487 80 40 80C17.8512 80 0 61.9835 0 40Z" fill="url(#paint0_linear_4305_242)"/>
<path d="M0 40C0 18.0165 17.8512 0 40 0C62.1487 0 80 17.8513 80 40C80 61.9835 62.1487 80 40 80C17.8512 80 0 61.9835 0 40Z" fill="url(#paint1_linear_4305_242)"/>
<mask id="mask0_4305_242" style="mask-type:luminance" maskUnits="userSpaceOnUse" x="20" y="21" width="40" height="40">
<path d="M20 21H60V61H20V21Z" fill="white"/>
</mask>
<g mask="url(#mask0_4305_242)">
<path d="M30.2365 28.1801H22.2158C21.4232 28.1801 20.7812 28.8229 20.7812 29.6945V50.402C20.7812 51.1149 21.4232 51.7568 22.2158 51.7568H50.333C51.1257 51.7568 51.7676 51.1149 51.7676 50.402V39.8074L50.4646 39.7277C49.8737 39.7277 49.3944 39.2484 49.3944 38.6568V37.8936C49.3944 37.0857 48.4679 36.4414 47.6737 36.9L47.0126 37.282C46.5006 37.5779 45.8459 37.4024 45.5501 36.8896L44.3181 34.7565C44.0223 34.2446 44.1984 33.5899 44.7096 33.294L45.3706 32.9129C46.1019 32.4903 46.1019 31.3475 45.3706 30.9257L44.7104 30.5446C44.1984 30.2487 44.0223 29.5932 44.3181 29.0821L44.8388 28.1801H37.2518" stroke="#333333" stroke-miterlimit="10" stroke-linecap="round" stroke-linejoin="round"/>
<path d="M51.768 47.7811V50.4022C51.768 51.1147 51.1258 51.757 50.3328 51.757H22.2156C21.4234 51.757 20.7812 51.1147 20.7812 50.4022V47.7811H51.768Z" stroke="#333333" stroke-miterlimit="10" stroke-linecap="round" stroke-linejoin="round"/>
<path d="M40.2853 55.8948L39.8032 51.7568H33.5432L33.061 55.8948C32.9314 57.031 31.9693 57.8886 30.8258 57.8874C30.7877 57.8889 30.8643 57.8896 30.8258 57.8896H42.5205C42.4821 57.8896 42.5587 57.8889 42.5205 57.8874C41.3771 57.8886 40.4149 57.031 40.2853 55.8948Z" stroke="#333333" stroke-miterlimit="10" stroke-linecap="round" stroke-linejoin="round"/>
<path d="M30.8258 57.8896H29.9014" stroke="#333333" stroke-miterlimit="10" stroke-linecap="round" stroke-linejoin="round"/>
<path d="M43.4449 57.8896H42.5205" stroke="#333333" stroke-miterlimit="10" stroke-linecap="round" stroke-linejoin="round"/>
<path d="M27.2397 36.3065L25.019 33.9729L27.2397 31.6393" stroke="#333333" stroke-miterlimit="10" stroke-linecap="round" stroke-linejoin="round"/>
<path d="M36.0159 36.3065L38.2366 33.9729L36.0159 31.6393" stroke="#333333" stroke-miterlimit="10" stroke-linecap="round" stroke-linejoin="round"/>
<path d="M33.111 31.6392L30.2361 36.3064" stroke="#333333" stroke-miterlimit="10" stroke-linecap="round" stroke-linejoin="round"/>
<path d="M38.383 39.8297H25.0189" stroke="#333333" stroke-miterlimit="10" stroke-linecap="round" stroke-linejoin="round"/>
<path d="M34.5774 43.7942H25.019" stroke="#333333" stroke-miterlimit="10" stroke-linecap="round" stroke-linejoin="round"/>
<path d="M45.4429 43.7942H38.769" stroke="#333333" stroke-miterlimit="10" stroke-linecap="round" stroke-linejoin="round"/>
<path d="M51.6965 29.4463C53.0621 29.4462 54.1697 30.5532 54.1697 31.9189C54.1697 33.2846 53.0621 34.3917 51.6965 34.3917C50.3308 34.3917 49.2237 33.2846 49.2237 31.9189C49.2237 30.5532 50.3308 29.4463 51.6965 29.4463ZM44.7105 30.5443L45.371 30.9258C46.1022 31.3471 46.1022 32.4901 45.371 32.9127L44.7099 33.2942C44.1984 33.5899 44.0226 34.2444 44.3183 34.7565L45.5505 36.89C45.8462 37.4021 46.5007 37.5779 47.0127 37.2822L47.6738 36.9001C48.4676 36.4418 49.3942 37.0859 49.3942 37.8932V38.6569C49.3942 39.2482 49.8735 39.7275 50.4648 39.7275H52.9286C53.52 39.7275 53.9993 39.2482 53.9993 38.6569V37.8932C53.9993 37.0857 54.9258 36.4418 55.7197 36.9001L56.3808 37.2822C56.8929 37.5779 57.5474 37.4021 57.843 36.89L59.0752 34.7565C59.3708 34.2444 59.195 33.5899 58.6829 33.2942L58.0225 32.9127C57.293 32.4911 57.2897 31.3481 58.0225 30.9258L58.6829 30.5443C59.195 30.2486 59.3708 29.5941 59.0752 29.082L57.843 26.9479C57.5474 26.4359 56.8929 26.2606 56.3808 26.5563L55.7197 26.9378C54.9253 27.3964 53.9993 26.7521 53.9993 25.9446V25.181C53.9993 24.5896 53.52 24.1104 52.9286 24.1104H50.4648C49.8735 24.1104 49.3942 24.5896 49.3942 25.181V25.9446C49.3942 26.7521 48.4682 27.3964 47.6739 26.9378L47.0127 26.5563C46.5007 26.2606 45.8462 26.4359 45.5505 26.9479L44.3183 29.082C44.0226 29.5935 44.1984 30.2486 44.7105 30.5443Z" stroke="#333333" stroke-miterlimit="10" stroke-linecap="round" stroke-linejoin="round"/>
</g>
<defs>
<linearGradient id="paint0_linear_4305_242" x1="11.6212" y1="11.7742" x2="68.0739" y2="68.2269" gradientUnits="userSpaceOnUse">
<stop stop-color="#FFDB65"/>
<stop offset="1" stop-color="#FF8C33"/>
</linearGradient>
<linearGradient id="paint1_linear_4305_242" x1="-8.41168" y1="-2.71187" x2="85.9836" y2="88.5676" gradientUnits="userSpaceOnUse">
<stop stop-color="#FFDF00"/>
<stop offset="1" stop-color="#FFB800"/>
</linearGradient>
</defs>
</svg>
