<svg width="80" height="80" viewBox="0 0 80 80" fill="none" xmlns="http://www.w3.org/2000/svg">
<path d="M0 40C0 18.0166 17.8512 0 40 0C62.1487 0 80 17.8513 80 40C80 61.9835 62.1487 80 40 80C17.8512 80 0 61.9835 0 40Z" fill="url(#paint0_linear_4305_241)"/>
<path d="M0 40C0 18.0166 17.8512 0 40 0C62.1487 0 80 17.8513 80 40C80 61.9835 62.1487 80 40 80C17.8512 80 0 61.9835 0 40Z" fill="url(#paint1_linear_4305_241)"/>
<g clip-path="url(#clip0_4305_241)">
<path d="M53.9199 35.1294C53.1667 34.8397 52.3631 34.5768 51.5182 34.3409C51.7363 33.4912 51.9105 32.6638 52.0363 31.8666C52.6906 27.717 51.9675 24.8062 50.0001 23.6703C49.4282 23.3401 48.7709 23.1726 48.0466 23.1726C45.7587 23.1726 42.8678 24.8718 39.9514 27.7412C39.3143 27.1155 38.6743 26.5408 38.0363 26.0249C34.77 23.3833 31.8874 22.5541 29.9202 23.6901C28.6558 24.42 27.8869 25.9107 27.6967 28.0009C27.6647 28.3519 27.9234 28.6624 28.2745 28.6943C28.6266 28.7268 28.9359 28.4676 28.9679 28.1165C29.0733 26.9596 29.4346 25.4444 30.5584 24.7956C32.0146 23.9546 34.4477 24.7645 37.2336 27.0174C37.8415 27.5089 38.4518 28.0571 39.0601 28.6542C37.8368 29.9558 36.6196 31.4537 35.4507 33.1093C33.3946 33.2964 31.4361 33.6104 29.6387 34.041C29.324 32.8175 29.1078 31.6501 29.0012 30.5664C28.9667 30.2156 28.6557 29.9592 28.3035 29.9937C27.9527 30.0282 27.6963 30.3406 27.7308 30.6914C27.8437 31.8381 28.0719 33.0715 28.4046 34.3623C27.5879 34.5926 26.8106 34.8484 26.0803 35.1293C22.1592 36.6374 20 38.7191 20 40.9908C20 43.2626 22.1592 45.3443 26.0801 46.8523C26.8333 47.142 27.6369 47.4049 28.4818 47.6408C28.2637 48.4905 28.0895 49.3179 27.9637 50.1151C27.3094 54.2646 28.0325 57.1754 29.9999 58.3113C30.5718 58.6415 31.2291 58.809 31.9534 58.809C34.215 58.809 37.0659 57.1481 39.9482 54.3383C40.5656 54.9414 41.1856 55.4965 41.8037 55.9964C44.1153 57.8658 46.2343 58.8275 47.973 58.8274C48.6911 58.8273 49.3448 58.6632 49.9199 58.3312C51.8873 57.1952 52.6105 54.2844 51.9561 50.1349C51.8304 49.3378 51.6563 48.5105 51.4381 47.6609C52.7521 47.299 53.9607 46.8728 55.0311 46.3877C55.3523 46.2421 55.4946 45.8639 55.349 45.5428C55.2035 45.2217 54.8252 45.0793 54.5042 45.2249C53.4904 45.6844 52.3444 46.0888 51.0963 46.4328C50.5803 44.7084 49.8932 42.9083 49.0558 41.0874C49.9308 39.2047 50.646 37.3424 51.1786 35.5609C55.9161 36.8874 58.7234 38.9824 58.7234 40.9908C58.7234 42.2884 57.5918 43.3591 56.6426 44.0286C56.3545 44.2318 56.2857 44.6301 56.4888 44.9181C56.6921 45.2063 57.0903 45.275 57.3784 45.0718C59.0935 43.8621 60 42.4508 60 40.9908C60 38.7191 57.8408 36.6374 53.9199 35.1294ZM48.0465 24.4493C48.5438 24.4493 48.9864 24.5592 49.3617 24.7759C50.818 25.6168 51.3333 28.1288 50.7751 31.6678C50.6555 32.4258 50.49 33.2132 50.2824 34.0226C48.4775 33.5946 46.5123 33.2838 44.4499 33.1004C43.2928 31.4628 42.0783 29.9652 40.8435 28.6534C41.0694 28.4306 41.2956 28.2144 41.5213 28.0064C44.0108 25.7125 46.3281 24.4493 48.0465 24.4493ZM39.9532 29.5686C40.9163 30.5952 41.8681 31.7403 42.7892 32.9815C41.8727 32.9316 40.9414 32.9057 40 32.9057C39.0271 32.9057 38.0649 32.933 37.1187 32.9863C38.0386 31.7472 38.9916 30.5974 39.9532 29.5686ZM39.9487 52.5181C38.9514 51.4611 37.966 50.2764 37.0137 48.9891C37.9936 49.0465 38.9911 49.0759 40 49.0759C40.9718 49.0759 41.9346 49.0476 42.8826 48.9935C41.9311 50.2755 40.9442 51.4624 39.9487 52.5181ZM40 47.7993C38.6285 47.7993 37.3125 47.7462 36.0584 47.6475C35.354 46.6198 34.6725 45.5386 34.0237 44.4148C33.3852 43.3089 32.7978 42.1929 32.2657 41.0825C32.818 39.9198 33.4323 38.7495 34.1037 37.5866C34.7539 36.4604 35.4441 35.3684 36.1613 34.3264C37.3846 34.2329 38.6659 34.1823 40 34.1823C41.2998 34.1823 42.5494 34.2303 43.7442 34.3192C44.462 35.3632 45.1561 36.4626 45.8164 37.6063C46.4845 38.7635 47.0959 39.9279 47.6462 41.0849C47.1169 42.1863 46.5321 43.294 45.8964 44.395C45.2475 45.519 44.5586 46.609 43.8428 47.6494C42.5904 47.7479 41.3041 47.7993 40 47.7993ZM34.4157 47.4883C32.8453 47.3068 31.3875 47.0518 30.0579 46.7385C30.4616 45.3947 30.9734 44.0015 31.5837 42.5861C32.0006 43.4106 32.4457 44.2349 32.9181 45.0531C33.4005 45.8887 33.901 46.7017 34.4157 47.4883ZM34.517 34.4815C33.9969 35.2746 33.4891 36.0978 32.9981 36.9483C32.4932 37.8228 32.0195 38.7023 31.5788 39.5804C30.9369 38.1066 30.3994 36.6548 29.9798 35.2614C31.3588 34.9329 32.877 34.6671 34.517 34.4815ZM21.2766 40.9908C21.2766 38.9932 24.054 36.9099 28.7453 35.5823C29.2759 37.3527 29.9879 39.2095 30.8563 41.0842C30.0212 42.9022 29.3359 44.6992 28.8212 46.4208C24.0839 45.0942 21.2766 42.9992 21.2766 40.9908ZM31.9535 57.5323C31.4562 57.5323 31.0136 57.4225 30.6383 57.2057C29.182 56.3649 28.6667 53.8529 29.2249 50.3139C29.3445 49.5558 29.51 48.7684 29.7176 47.9591C31.4638 48.3731 33.3602 48.6775 35.3494 48.8628C36.5367 50.5485 37.7849 52.0869 39.054 53.4286C38.8622 53.6159 38.6703 53.7987 38.4787 53.9752C35.9892 56.2692 33.6719 57.5323 31.9535 57.5323ZM50.6951 50.3337C51.2534 53.8727 50.7381 56.3847 49.2818 57.2255C47.8254 58.0663 45.3925 57.2565 42.6066 55.0038C42.0199 54.5294 41.4309 54.0023 40.8438 53.4294C42.1001 52.1036 43.3512 50.5695 44.5513 48.8695C46.5455 48.6864 48.4511 48.3846 50.2014 47.9751C50.4095 48.7858 50.5754 49.5745 50.6951 50.3337ZM49.8586 46.7462C48.4914 47.0639 47.0236 47.3139 45.4893 47.4905C46.0071 46.7004 46.5128 45.8804 47.0019 45.0334C47.4714 44.2201 47.9136 43.4026 48.3277 42.586C48.9401 44.0038 49.4535 45.3998 49.8586 46.7462ZM48.3336 39.5849C47.8951 38.7118 47.424 37.8375 46.922 36.968C46.4268 36.1103 45.9127 35.2763 45.3835 34.4703C47.0307 34.6529 48.5559 34.9165 49.9421 35.2432C49.5204 36.6468 48.9803 38.1047 48.3336 39.5849Z" fill="#333333"/>
<path d="M40 37.7993C38.2402 37.7993 36.8085 39.231 36.8085 40.9908C36.8085 42.7506 38.2402 44.1823 40 44.1823C41.7598 44.1823 43.1915 42.7506 43.1915 40.9908C43.1915 39.231 41.7598 37.7993 40 37.7993ZM40 42.9057C38.9442 42.9057 38.0851 42.0466 38.0851 40.9908C38.0851 39.935 38.9442 39.0759 40 39.0759C41.0558 39.0759 41.9149 39.935 41.9149 40.9908C41.9149 42.0466 41.0558 42.9057 40 42.9057Z" fill="#333333"/>
</g>
<defs>
<linearGradient id="paint0_linear_4305_241" x1="11.6212" y1="11.7655" x2="68.0739" y2="68.2182" gradientUnits="userSpaceOnUse">
<stop stop-color="#FFDB65"/>
<stop offset="1" stop-color="#FF8C33"/>
</linearGradient>
<linearGradient id="paint1_linear_4305_241" x1="-8.41169" y1="-2.71187" x2="85.9836" y2="88.5676" gradientUnits="userSpaceOnUse">
<stop stop-color="#FFDF00"/>
<stop offset="1" stop-color="#FFB800"/>
</linearGradient>
<clipPath id="clip0_4305_241">
<rect width="40" height="40" fill="white" transform="translate(20 21)"/>
</clipPath>
</defs>
</svg>
