<svg width="82" height="82" viewBox="0 0 82 82" fill="none" xmlns="http://www.w3.org/2000/svg">
<g opacity="0.1">
<path d="M0.816895 41.7337C0.816895 19.68 18.7251 1.60596 40.9445 1.60596C63.164 1.60596 81.0722 19.5142 81.0722 41.7337C81.0722 63.9531 63.164 81.8613 40.9445 81.8613C18.7251 81.8613 0.816895 63.7873 0.816895 41.7337Z" fill="black"/>
</g>
<path d="M0 40C0 18.0165 17.8512 0 40 0C62.1487 0 80 17.8513 80 40C80 62.1488 62.1487 80 40 80C17.8512 80 0 61.9835 0 40Z" fill="url(#paint0_linear_4305_240)"/>
<path d="M0 40C0 18.0165 17.8512 0 40 0C62.1487 0 80 17.8513 80 40C80 62.1488 62.1487 80 40 80C17.8512 80 0 61.9835 0 40Z" fill="url(#paint1_linear_4305_240)"/>
<g clip-path="url(#clip0_4305_240)">
<mask id="mask0_4305_240" style="mask-type:luminance" maskUnits="userSpaceOnUse" x="21" y="22" width="40" height="40">
<path d="M21 22H61V62H21V22Z" fill="white"/>
</mask>
<g mask="url(#mask0_4305_240)">
<path fill-rule="evenodd" clip-rule="evenodd" d="M23.0986 44.5449C23.3747 44.5449 23.5986 44.321 23.5986 44.0449V40.7703C23.5986 39.8182 24.3704 39.0463 25.3226 39.0463H25.6875C25.9636 39.0463 26.1875 38.8225 26.1875 38.5463C26.1875 38.2702 25.9636 38.0463 25.6875 38.0463H25.3226C23.8181 38.0463 22.5986 39.2659 22.5986 40.7703V44.0449C22.5986 44.321 22.8224 44.5449 23.0986 44.5449Z" fill="#333333"/>
<path fill-rule="evenodd" clip-rule="evenodd" d="M58.9014 44.4667C59.1775 44.4667 59.4014 44.2428 59.4014 43.9667V40.7703C59.4014 39.2658 58.1818 38.0463 56.6774 38.0463H56.3906C56.1145 38.0463 55.8906 38.2701 55.8906 38.5463C55.8906 38.8224 56.1145 39.0463 56.3906 39.0463H56.6774C57.6296 39.0463 58.4014 39.8181 58.4014 40.7703V43.9667C58.4014 44.2428 58.6253 44.4667 58.9014 44.4667Z" fill="#333333"/>
<path fill-rule="evenodd" clip-rule="evenodd" d="M25.6916 42.6395C25.9677 42.6395 26.1916 42.4156 26.1916 42.1395V38.4022C26.1916 37.0052 27.0881 35.8165 28.3386 35.3822C28.5995 35.2916 28.7375 35.0067 28.647 34.7458C28.5564 34.485 28.2715 34.3469 28.0106 34.4375C26.3702 35.0072 25.1916 36.5663 25.1916 38.4022V42.1395C25.1916 42.4156 25.4154 42.6395 25.6916 42.6395Z" fill="#333333"/>
<path fill-rule="evenodd" clip-rule="evenodd" d="M35.4165 39.762C35.6926 39.7556 35.9112 39.5267 35.9049 39.2506L35.8853 38.3962C35.8827 36.5748 34.72 35.0267 33.0981 34.4487C32.838 34.356 32.552 34.4917 32.4593 34.7518C32.3666 35.0119 32.5023 35.2979 32.7624 35.3906C34.0003 35.8318 34.8853 37.0143 34.8853 38.4022V38.4137L34.8854 38.4137L34.9052 39.2736C34.9115 39.5496 35.1405 39.7683 35.4165 39.762Z" fill="#333333"/>
<path fill-rule="evenodd" clip-rule="evenodd" d="M27.0436 32.9463C27.0436 34.8746 28.6068 36.4379 30.5352 36.4379H30.5417C32.47 36.4379 34.0332 34.8746 34.0332 32.9463V30.4022C34.0332 28.4738 32.47 26.9107 30.5417 26.9107H30.5352C28.6069 26.9107 27.0436 28.4738 27.0436 30.4022V32.9463ZM30.5352 35.4379C29.1591 35.4379 28.0436 34.3223 28.0436 32.9463V30.4022C28.0436 29.0261 29.1591 27.9107 30.5352 27.9107H30.5417C31.9177 27.9107 33.0332 29.0261 33.0332 30.4022V32.9463C33.0332 34.3223 31.9177 35.4379 30.5417 35.4379H30.5352Z" fill="#333333"/>
<path fill-rule="evenodd" clip-rule="evenodd" d="M27.2287 32.0626C27.3458 32.1576 27.4995 32.1946 27.647 32.1634L33.6366 30.8977C33.8678 30.8488 34.0332 30.6448 34.0332 30.4085C34.0332 28.4771 32.469 26.9107 30.5384 26.9107C28.6079 26.9107 27.0436 28.4771 27.0436 30.4085V31.6743C27.0436 31.825 27.1116 31.9677 27.2287 32.0626ZM28.0436 31.0575V30.4085C28.0436 29.0284 29.1611 27.9107 30.5384 27.9107C31.7803 27.9107 32.8109 28.8194 33.0016 30.0098L28.0436 31.0575Z" fill="#333333"/>
<path fill-rule="evenodd" clip-rule="evenodd" d="M55.5663 36.784C55.7304 37.0061 56.0434 37.0532 56.2656 36.8892C56.8395 36.4652 57.2135 35.7822 57.2135 35.0119V28.4117C57.2135 27.1235 56.1692 26.0792 54.881 26.0792C53.8521 26.0792 52.9801 26.7451 52.6697 27.668C52.5817 27.9297 52.7226 28.2133 52.9843 28.3013C53.246 28.3893 53.5296 28.2485 53.6176 27.9867C53.7952 27.4585 54.2945 27.0792 54.881 27.0792C55.6169 27.0792 56.2135 27.6758 56.2135 28.4117V35.0119C56.2135 35.4514 56.0012 35.8412 55.6714 36.0848C55.4493 36.2488 55.4023 36.5619 55.5663 36.784Z" fill="#333333"/>
<path fill-rule="evenodd" clip-rule="evenodd" d="M56.3084 42.6394C56.5845 42.6394 56.8084 42.4155 56.8084 42.1394V38.4021C56.8084 36.578 55.6447 35.027 54.0207 34.4485C53.7606 34.3558 53.4746 34.4916 53.3819 34.7517C53.2892 35.0118 53.425 35.2978 53.6851 35.3905C54.9233 35.8315 55.8084 37.0141 55.8084 38.4021V42.1394C55.8084 42.4155 56.0322 42.6394 56.3084 42.6394Z" fill="#333333"/>
<path fill-rule="evenodd" clip-rule="evenodd" d="M46.6147 39.7656C46.8909 39.7656 47.1147 39.5418 47.1147 39.2656V38.4022C47.1147 37.014 48.0001 35.8313 49.2385 35.3904C49.4986 35.2978 49.6344 35.0118 49.5418 34.7517C49.4492 34.4915 49.1632 34.3557 48.903 34.4483C47.2788 35.0266 46.1147 36.5779 46.1147 38.4022V39.2656C46.1147 39.5418 46.3386 39.7656 46.6147 39.7656Z" fill="#333333"/>
<path fill-rule="evenodd" clip-rule="evenodd" d="M47.9668 32.9463C47.9668 34.8746 49.53 36.4379 51.4583 36.4379H51.4648C53.3931 36.4379 54.9564 34.8746 54.9564 32.9463V30.4022C54.9564 28.4738 53.3931 26.9107 51.4648 26.9107H51.4583C49.53 26.9107 47.9668 28.4738 47.9668 30.4022V32.9463ZM51.4583 35.4379C50.0823 35.4379 48.9668 34.3223 48.9668 32.9463V30.4022C48.9668 29.0261 50.0823 27.9107 51.4583 27.9107H51.4648C52.8409 27.9107 53.9564 29.0261 53.9564 30.4022V32.9463C53.9564 34.3223 52.8409 35.4379 51.4648 35.4379H51.4583Z" fill="#333333"/>
<path fill-rule="evenodd" clip-rule="evenodd" d="M48.1519 32.0626C48.269 32.1576 48.4227 32.1946 48.5701 32.1634L54.5598 30.8977C54.791 30.8488 54.9564 30.6448 54.9564 30.4085C54.9564 28.4771 53.3921 26.9107 51.4615 26.9107C49.531 26.9107 47.9668 28.4771 47.9668 30.4085V31.6743C47.9668 31.825 48.0348 31.9677 48.1519 32.0626ZM48.9668 31.0575V30.4085C48.9668 29.0284 50.0842 27.9107 51.4615 27.9107C52.7035 27.9107 53.7341 28.8194 53.9248 30.0098L48.9668 31.0575Z" fill="#333333"/>
<path fill-rule="evenodd" clip-rule="evenodd" d="M35.3682 55.855C37.1537 56.0858 39.044 56.2097 41 56.2097C42.9519 56.2097 44.8385 56.0864 46.6207 55.8564C46.8945 55.8211 47.0879 55.5704 47.0526 55.2965C47.0172 55.0226 46.7665 54.8293 46.4927 54.8646C44.7539 55.089 42.9102 55.2097 41 55.2097C39.0859 55.2097 37.2384 55.0885 35.4965 54.8632C35.2226 54.8278 34.9719 55.0211 34.9365 55.295C34.9011 55.5689 35.0944 55.8196 35.3682 55.855Z" fill="#333333"/>
<path fill-rule="evenodd" clip-rule="evenodd" d="M55.4911 52.9075C55.6186 53.1525 55.9205 53.2477 56.1655 53.1202C59.0036 51.6433 60.914 49.644 60.914 47.3088C60.914 44.8941 58.8728 42.8383 55.8641 41.3443C52.8169 39.8312 48.6033 38.7979 43.8678 38.498C43.5922 38.4805 43.3547 38.6898 43.3372 38.9653C43.3198 39.2409 43.529 39.4785 43.8046 39.496C48.4467 39.79 52.5221 40.8013 55.4194 42.2399C58.3551 43.6977 59.914 45.5008 59.914 47.3088C59.914 49.0558 58.4601 50.7988 55.7038 52.2332C55.4589 52.3607 55.3636 52.6626 55.4911 52.9075Z" fill="#333333"/>
<path fill-rule="evenodd" clip-rule="evenodd" d="M26.5495 52.927C26.6763 52.6817 26.5802 52.3801 26.3349 52.2533C23.5541 50.8155 22.0859 49.0642 22.0859 47.3088C22.0859 45.4314 23.7685 43.5604 26.9124 42.0794C30.012 40.6194 34.3542 39.6331 39.2529 39.4419C39.5288 39.4311 39.7437 39.1987 39.733 38.9227C39.7222 38.6468 39.4898 38.4319 39.2139 38.4426C34.2183 38.6376 29.7369 39.6436 26.4863 41.1748C23.28 42.6851 21.0859 44.8043 21.0859 47.3088C21.0859 49.655 23.0142 51.6621 25.8757 53.1416C26.121 53.2684 26.4226 53.1723 26.5495 52.927Z" fill="#333333"/>
<path fill-rule="evenodd" clip-rule="evenodd" d="M25.6916 54.9832C25.9677 54.9832 26.1916 54.7594 26.1916 54.4832C26.1916 53.3554 26.7753 52.3637 27.6596 51.7941C27.8918 51.6446 27.9587 51.3351 27.8092 51.103C27.6596 50.8709 27.3502 50.8039 27.1181 50.9534C25.9601 51.6993 25.1916 53.0013 25.1916 54.4832C25.1916 54.7594 25.4154 54.9832 25.6916 54.9832Z" fill="#333333"/>
<path fill-rule="evenodd" clip-rule="evenodd" d="M35.3852 57.1846C35.6614 57.1846 35.8852 56.9608 35.8852 56.6846V54.4832C35.8852 52.985 35.0997 51.6707 33.9203 50.929C33.6866 50.7819 33.3779 50.8523 33.2309 51.086C33.0839 51.3198 33.1542 51.6285 33.3879 51.7755C34.2886 52.3419 34.8852 53.343 34.8852 54.4832V56.6846C34.8852 56.9608 35.1091 57.1846 35.3852 57.1846Z" fill="#333333"/>
<path fill-rule="evenodd" clip-rule="evenodd" d="M31.3726 55.6018C31.4912 55.8513 31.7895 55.9573 32.0389 55.8388C33.2169 55.2789 34.0332 54.0772 34.0332 52.6838V46.4833C34.0332 44.555 32.47 42.9917 30.5416 42.9917H30.5352C28.6068 42.9917 27.0436 44.555 27.0436 46.4833V52.6838C27.0436 53.5094 27.3308 54.2692 27.8103 54.867C27.983 55.0824 28.2977 55.117 28.5131 54.9442C28.7286 54.7714 28.7631 54.4567 28.5904 54.2413C28.2481 53.8146 28.0436 53.2737 28.0436 52.6838V46.4833C28.0436 45.1073 29.1591 43.9917 30.5352 43.9917H30.5416C31.9177 43.9917 33.0332 45.1073 33.0332 46.4833V52.6838C33.0332 53.6768 32.4523 54.5351 31.6096 54.9356C31.3602 55.0542 31.2541 55.3524 31.3726 55.6018Z" fill="#333333"/>
<path fill-rule="evenodd" clip-rule="evenodd" d="M56.3084 55.1302C56.5846 55.1302 56.8084 54.9063 56.8084 54.6302V54.4832C56.8084 52.6434 55.6246 51.0814 53.9786 50.5148C53.7175 50.425 53.4329 50.5638 53.3431 50.8249C53.2532 51.086 53.392 51.3705 53.6531 51.4604C54.908 51.8923 55.8084 53.0832 55.8084 54.4832V54.6302C55.8084 54.9063 56.0323 55.1302 56.3084 55.1302Z" fill="#333333"/>
<path fill-rule="evenodd" clip-rule="evenodd" d="M46.6148 57.2135C46.8909 57.2135 47.1148 56.9896 47.1148 56.7135V54.4832C47.1148 53.0766 48.0238 51.8809 49.2879 51.4543C49.5496 51.366 49.6901 51.0823 49.6018 50.8207C49.5135 50.559 49.2298 50.4185 48.9682 50.5068C47.3098 51.0664 46.1148 52.6347 46.1148 54.4832V56.7135C46.1148 56.9896 46.3386 57.2135 46.6148 57.2135Z" fill="#333333"/>
<path fill-rule="evenodd" clip-rule="evenodd" d="M47.9668 49.0274C47.9668 50.9557 49.53 52.519 51.4583 52.519H51.4648C53.3931 52.519 54.9564 50.9557 54.9564 49.0274V46.4833C54.9564 44.5549 53.3931 42.9918 51.4648 42.9918H51.4583C49.53 42.9918 47.9668 44.5549 47.9668 46.4833V49.0274ZM51.4583 51.519C50.0823 51.519 48.9668 50.4035 48.9668 49.0274V46.4833C48.9668 45.1073 50.0823 43.9918 51.4583 43.9918H51.4648C52.8409 43.9918 53.9564 45.1073 53.9564 46.4833V49.0274C53.9564 50.4035 52.8409 51.519 51.4648 51.519H51.4583Z" fill="#333333"/>
<path fill-rule="evenodd" clip-rule="evenodd" d="M22.5986 59.9516C22.5986 61.0354 23.4772 61.9141 24.5611 61.9141H32.2721C32.5482 61.9141 32.7721 61.6902 32.7721 61.4141V56.8514C32.7721 55.347 31.5525 54.1274 30.0481 54.1274H25.3225C23.8181 54.1274 22.5986 55.347 22.5986 56.8514V59.9516ZM24.5611 60.9141C24.0295 60.9141 23.5986 60.4832 23.5986 59.9516V56.8514C23.5986 55.8993 24.3704 55.1274 25.3225 55.1274H30.0481C31.0002 55.1274 31.7721 55.8993 31.7721 56.8514V60.9141H24.5611Z" fill="#333333"/>
<path fill-rule="evenodd" clip-rule="evenodd" d="M31.8263 61.6813C31.9739 61.9147 32.2828 61.9842 32.5161 61.8365L36.914 59.054C37.379 58.7499 37.659 58.2318 37.659 57.6764C37.659 56.37 36.2106 55.585 35.1164 56.2958L31.9841 58.2505C31.7498 58.3967 31.6784 58.7052 31.8246 58.9394C31.9708 59.1737 32.2793 59.2451 32.5135 59.0989L35.659 57.1359C36.0889 56.8546 36.659 57.1629 36.659 57.6764C36.659 57.8934 36.5501 58.0958 36.3693 58.2153L31.9815 60.9915C31.7481 61.1391 31.6786 61.448 31.8263 61.6813Z" fill="#333333"/>
<path fill-rule="evenodd" clip-rule="evenodd" d="M49.9691 61.852C50.1287 61.7641 50.2279 61.5963 50.2279 61.414V58.6747C50.2279 58.5022 50.139 58.3419 49.9926 58.2505L46.8604 56.2958C45.7662 55.585 44.3178 56.37 44.3178 57.6764C44.3178 58.2318 44.5979 58.7499 45.0627 59.054L45.0691 59.0581L45.0691 59.0581L49.4606 61.8365C49.6146 61.934 49.8094 61.9399 49.9691 61.852ZM45.6074 58.2154C45.4267 58.0958 45.3178 57.8934 45.3178 57.6764C45.3178 57.1629 45.888 56.8546 46.3177 57.1358L46.3267 57.1416L46.3268 57.1415L49.2279 58.952V60.506L45.6074 58.2154Z" fill="#333333"/>
<path fill-rule="evenodd" clip-rule="evenodd" d="M49.2279 61.414C49.2279 61.6901 49.4518 61.914 49.7279 61.914H57.4389C58.4842 61.914 59.335 61.0971 59.3961 60.0688C59.4125 59.7932 59.2023 59.5564 58.9266 59.54C58.651 59.5237 58.4142 59.7339 58.3978 60.0095C58.3678 60.5146 57.9498 60.914 57.4389 60.914H50.2279V56.8513C50.2279 55.8992 50.9998 55.1274 51.9519 55.1274H56.6774C57.6296 55.1274 58.4014 55.8992 58.4014 56.8513V56.9295C58.4014 57.2057 58.6253 57.4295 58.9014 57.4295C59.1776 57.4295 59.4014 57.2057 59.4014 56.9295V56.8513C59.4014 55.3469 58.1819 54.1274 56.6774 54.1274H51.9519C50.4475 54.1274 49.2279 55.3469 49.2279 56.8513V61.414Z" fill="#333333"/>
<path fill-rule="evenodd" clip-rule="evenodd" d="M45.4692 51.5889C45.6247 51.4998 45.7206 51.3342 45.7206 51.155V49.5348C46.4919 48.7776 46.9721 47.7223 46.9721 46.5546C46.9721 44.2473 45.1018 42.377 42.7945 42.377C40.4874 42.377 38.617 44.2473 38.617 46.5546C38.617 48.8617 40.4874 50.7321 42.7945 50.7321C43.0099 50.7321 43.2215 50.7156 43.4282 50.684L44.9678 51.5864C45.1224 51.677 45.3137 51.678 45.4692 51.5889ZM44.7206 50.2824L43.7753 49.7284C43.6694 49.6663 43.5444 49.6453 43.424 49.6695C43.2206 49.7104 43.0102 49.7321 42.7945 49.7321C41.0396 49.7321 39.617 48.3094 39.617 46.5546C39.617 44.7996 41.0397 43.377 42.7945 43.377C44.5495 43.377 45.9721 44.7996 45.9721 46.5546C45.9721 47.5056 45.5542 48.3583 44.8905 48.9416C44.7825 49.0365 44.7206 49.1733 44.7206 49.3171V50.2824Z" fill="#333333"/>
<path d="M41.0469 47.1953C41.801 47.1953 41.8021 46.0234 41.0469 46.0234C40.2928 46.0234 40.2916 47.1953 41.0469 47.1953Z" fill="#333333"/>
<path d="M42.7945 47.1953C43.5486 47.1953 43.5498 46.0234 42.7945 46.0234C42.0405 46.0234 42.0393 47.1953 42.7945 47.1953Z" fill="#333333"/>
<path d="M44.5422 47.1953C45.2963 47.1953 45.2975 46.0234 44.5422 46.0234C43.7881 46.0234 43.787 47.1953 44.5422 47.1953Z" fill="#333333"/>
<path fill-rule="evenodd" clip-rule="evenodd" d="M36.4079 36.1727C36.5634 36.2618 36.7547 36.2608 36.9093 36.1702L38.4489 35.2678C38.6555 35.2994 38.8671 35.3159 39.0826 35.3159C41.3898 35.3159 43.2601 33.4455 43.2601 31.1384C43.2601 30.5633 43.1436 30.0141 42.9325 29.5142C42.8251 29.2598 42.5318 29.1406 42.2774 29.2481C42.023 29.3555 41.9039 29.6488 42.0113 29.9032C42.1713 30.2822 42.2601 30.6994 42.2601 31.1384C42.2601 32.8932 40.8375 34.3159 39.0826 34.3159C38.867 34.3159 38.6567 34.2942 38.4531 34.2533C38.3327 34.2291 38.2077 34.2501 38.1018 34.3122L37.1565 34.8662V33.9009C37.1565 33.7571 37.0946 33.6203 36.9866 33.5254C36.323 32.9421 35.905 32.0894 35.905 31.1384C35.905 29.3834 37.3276 27.9609 39.0826 27.9609C39.5223 27.9609 39.9399 28.0498 40.3192 28.2103C40.5735 28.3178 40.8669 28.1989 40.9745 27.9446C41.0821 27.6902 40.9631 27.3969 40.7088 27.2893C40.2083 27.0776 39.6584 26.9609 39.0826 26.9609C36.7754 26.9609 34.905 28.8311 34.905 31.1384C34.905 32.3061 35.3853 33.3614 36.1565 34.1186V35.7388C36.1565 35.918 36.2524 36.0836 36.4079 36.1727Z" fill="#333333"/>
<path d="M37.3349 31.7791C38.089 31.7791 38.0902 30.6072 37.3349 30.6072C36.5808 30.6072 36.5797 31.7791 37.3349 31.7791Z" fill="#333333"/>
<path d="M39.0826 31.7791C39.8366 31.7791 39.8379 30.6072 39.0826 30.6072C38.3285 30.6072 38.3273 31.7791 39.0826 31.7791Z" fill="#333333"/>
<path d="M40.8302 31.7791C41.5843 31.7791 41.5855 30.6072 40.8302 30.6072C40.0762 30.6072 40.0749 31.7791 40.8302 31.7791Z" fill="#333333"/>
<path fill-rule="evenodd" clip-rule="evenodd" d="M46.6858 31.2978C46.8413 31.2087 46.9372 31.0432 46.9372 30.864V29.2438C47.7084 28.4865 48.1887 27.4312 48.1887 26.2635C48.1887 23.9562 46.3184 22.0859 44.0111 22.0859C41.704 22.0859 39.8336 23.9562 39.8336 26.2635C39.8336 28.5707 41.704 30.441 44.0111 30.441C44.2266 30.441 44.4382 30.4245 44.6448 30.3929L46.1844 31.2953C46.339 31.3859 46.5303 31.3869 46.6858 31.2978ZM45.9372 29.9913L44.9919 29.4373C44.886 29.3752 44.761 29.3543 44.6406 29.3784C44.4372 29.4193 44.2268 29.441 44.0111 29.441C42.2562 29.441 40.8336 28.0183 40.8336 26.2635C40.8336 24.5085 42.2563 23.0859 44.0111 23.0859C45.7661 23.0859 47.1887 24.5085 47.1887 26.2635C47.1887 27.2145 46.7708 28.0672 46.1071 28.6505C45.9991 28.7454 45.9372 28.8823 45.9372 29.0261V29.9913Z" fill="#333333"/>
<path fill-rule="evenodd" clip-rule="evenodd" d="M45.3225 27.5954C45.5178 27.4001 45.5178 27.0835 45.3225 26.8883L43.407 24.9727C43.2117 24.7775 42.8951 24.7775 42.6999 24.9727C42.5046 25.168 42.5046 25.4846 42.6999 25.6798L44.6154 27.5954C44.8107 27.7906 45.1272 27.7906 45.3225 27.5954Z" fill="#333333"/>
<path fill-rule="evenodd" clip-rule="evenodd" d="M42.6998 27.5954C42.8951 27.7906 43.2117 27.7906 43.4069 27.5954L45.3225 25.6798C45.5177 25.4846 45.5177 25.168 45.3225 24.9727C45.1272 24.7775 44.8106 24.7775 44.6154 24.9727L42.6998 26.8883C42.5045 27.0835 42.5045 27.4001 42.6998 27.5954Z" fill="#333333"/>
</g>
</g>
<defs>
<linearGradient id="paint0_linear_4305_240" x1="11.6212" y1="11.7569" x2="68.0739" y2="68.2094" gradientUnits="userSpaceOnUse">
<stop stop-color="#FFDB65"/>
<stop offset="1" stop-color="#FF8C33"/>
</linearGradient>
<linearGradient id="paint1_linear_4305_240" x1="-8.41168" y1="-2.71187" x2="85.9836" y2="88.5676" gradientUnits="userSpaceOnUse">
<stop stop-color="#FFDF00"/>
<stop offset="1" stop-color="#FFB800"/>
</linearGradient>
<clipPath id="clip0_4305_240">
<rect width="40" height="40" fill="white" transform="translate(21 22)"/>
</clipPath>
</defs>
</svg>
