<svg width="81" height="81" viewBox="0 0 81 81" fill="none" xmlns="http://www.w3.org/2000/svg">
<path d="M40 80C62.0914 80 80 62.0914 80 40C80 17.9086 62.0914 0 40 0C17.9086 0 0 17.9086 0 40C0 62.0914 17.9086 80 40 80Z" fill="url(#paint0_linear_4305_235)"/>
<path d="M40 80C62.0914 80 80 62.0914 80 40C80 17.9086 62.0914 0 40 0C17.9086 0 0 17.9086 0 40C0 62.0914 17.9086 80 40 80Z" fill="url(#paint1_linear_4305_235)"/>
<g opacity="0.1">
<path d="M0.473633 40.7622C0.473633 18.7086 18.3819 0.634521 40.6013 0.634521C62.655 0.634521 80.729 18.5427 80.729 40.7622C80.729 62.8158 62.8208 80.8899 40.6013 80.8899C18.3819 80.8899 0.473633 62.8158 0.473633 40.7622Z" fill="black"/>
</g>
<mask id="mask0_4305_235" style="mask-type:luminance" maskUnits="userSpaceOnUse" x="20" y="21" width="40" height="40">
<path d="M20 21H60V61H20V21Z" fill="white"/>
</mask>
<g mask="url(#mask0_4305_235)">
<path d="M38.1713 56.911H55.634C56.5946 56.911 57.3734 56.1323 57.3734 55.1716V48.4287" stroke="#333333" stroke-miterlimit="10" stroke-linecap="round" stroke-linejoin="round"/>
<path d="M36.3212 21.5859H31.5798C30.6192 21.5859 29.8405 22.3646 29.8405 23.3253V34.8406" stroke="#333333" stroke-miterlimit="10" stroke-linecap="round" stroke-linejoin="round"/>
<path d="M57.3733 45.7587V23.3253C57.3733 22.3647 56.5946 21.5859 55.634 21.5859H38.9913" stroke="#333333" stroke-miterlimit="10" stroke-linecap="round" stroke-linejoin="round"/>
<path d="M54 31.5464H33.2139V25.7872H54V31.5464Z" stroke="#333333" stroke-miterlimit="10" stroke-linecap="round" stroke-linejoin="round"/>
<path d="M39.1045 35.8601C39.2984 35.5269 39.6593 35.3029 40.0726 35.3029H41.5234C42.1415 35.3029 42.6426 35.804 42.6426 36.4222C42.6426 37.0403 42.1415 37.5414 41.5234 37.5414H40.5413" stroke="#333333" stroke-miterlimit="10" stroke-linecap="round" stroke-linejoin="round"/>
<path d="M47.1413 37.5414H45.6906C45.0724 37.5414 44.5713 37.0403 44.5713 36.4222C44.5713 35.804 45.0724 35.3029 45.6906 35.3029H47.1413C47.7595 35.3029 48.2606 35.804 48.2606 36.4222C48.2606 37.0403 47.7595 37.5414 47.1413 37.5414Z" stroke="#333333" stroke-miterlimit="10" stroke-linecap="round" stroke-linejoin="round"/>
<path d="M52.7593 37.5414H51.3085C50.6904 37.5414 50.1893 37.0403 50.1893 36.4222C50.1893 35.804 50.6904 35.3029 51.3085 35.3029H52.7593C53.3774 35.3029 53.8785 35.804 53.8785 36.4222C53.8785 37.0403 53.3774 37.5414 52.7593 37.5414Z" stroke="#333333" stroke-miterlimit="10" stroke-linecap="round" stroke-linejoin="round"/>
<path d="M40.385 41.0003H41.5233C42.1414 41.0003 42.6425 41.5014 42.6425 42.1196C42.6425 42.7377 42.1414 43.2388 41.5233 43.2388H40.0725C39.4544 43.2388 38.9533 42.7377 38.9533 42.1196" stroke="#333333" stroke-miterlimit="10" stroke-linecap="round" stroke-linejoin="round"/>
<path d="M47.1413 43.2388H45.6906C45.0724 43.2388 44.5713 42.7377 44.5713 42.1196C44.5713 41.5014 45.0724 41.0003 45.6906 41.0003H47.1413C47.7595 41.0003 48.2606 41.5014 48.2606 42.1196C48.2606 42.7377 47.7595 43.2388 47.1413 43.2388Z" stroke="#333333" stroke-miterlimit="10" stroke-linecap="round" stroke-linejoin="round"/>
<path d="M52.7593 43.2388H51.3085C50.6904 43.2388 50.1893 42.7377 50.1893 42.1196C50.1893 41.5014 50.6904 41.0003 51.3085 41.0003H52.7593C53.3774 41.0003 53.8785 41.5014 53.8785 42.1196C53.8785 42.7377 53.3774 43.2388 52.7593 43.2388Z" stroke="#333333" stroke-miterlimit="10" stroke-linecap="round" stroke-linejoin="round"/>
<path d="M38.9533 46.6977C38.9533 46.0796 39.4544 45.5785 40.0725 45.5785H41.5233C42.1415 45.5785 42.6426 46.0796 42.6426 46.6977C42.6426 47.3158 42.1415 47.817 41.5233 47.817H40.2288" stroke="#333333" stroke-miterlimit="10" stroke-linecap="round" stroke-linejoin="round"/>
<path d="M47.1413 47.817H45.6906C45.0724 47.817 44.5713 47.3158 44.5713 46.6977C44.5713 46.0796 45.0724 45.5785 45.6906 45.5785H47.1413C47.7595 45.5785 48.2606 46.0796 48.2606 46.6977C48.2606 47.3158 47.7595 47.817 47.1413 47.817Z" stroke="#333333" stroke-miterlimit="10" stroke-linecap="round" stroke-linejoin="round"/>
<path d="M52.7593 47.817H51.3085C50.6904 47.817 50.1893 47.3158 50.1893 46.6977C50.1893 46.0796 50.6904 45.5785 51.3085 45.5785H52.7593C53.3774 45.5785 53.8785 46.0796 53.8785 46.6977C53.8785 47.3158 53.3774 47.817 52.7593 47.817Z" stroke="#333333" stroke-miterlimit="10" stroke-linecap="round" stroke-linejoin="round"/>
<path d="M40.5413 50.1566H41.5233C42.1414 50.1566 42.6425 50.6577 42.6425 51.2758C42.6425 51.894 42.1414 52.3951 41.5233 52.3951H40.2288" stroke="#333333" stroke-miterlimit="10" stroke-linecap="round" stroke-linejoin="round"/>
<path d="M47.1413 52.3951H45.6906C45.0724 52.3951 44.5713 51.894 44.5713 51.2758C44.5713 50.6577 45.0724 50.1566 45.6906 50.1566H47.1413C47.7595 50.1566 48.2606 50.6577 48.2606 51.2758C48.2606 51.894 47.7595 52.3951 47.1413 52.3951Z" stroke="#333333" stroke-miterlimit="10" stroke-linecap="round" stroke-linejoin="round"/>
<path d="M52.7593 52.3951H51.3085C50.6904 52.3951 50.1893 51.894 50.1893 51.2758C50.1893 50.6577 50.6904 50.1566 51.3085 50.1566H52.7593C53.3774 50.1566 53.8785 50.6577 53.8785 51.2758C53.8785 51.894 53.3774 52.3951 52.7593 52.3951Z" stroke="#333333" stroke-miterlimit="10" stroke-linecap="round" stroke-linejoin="round"/>
<path d="M22.6266 54.6026V57.8743C22.6266 59.1093 25.3245 60.1381 28.8993 60.3666" stroke="#333333" stroke-miterlimit="10" stroke-linecap="round" stroke-linejoin="round"/>
<path d="M31.5694 60.3854C35.3066 60.2009 38.1713 59.1469 38.1713 57.8744V54.6026" stroke="#333333" stroke-miterlimit="10" stroke-linecap="round" stroke-linejoin="round"/>
<path d="M37.7048 53.7341C38.0067 54.0051 38.1714 54.2976 38.1714 54.6027C38.1714 56.0053 34.6915 57.1423 30.3989 57.1423C26.1064 57.1423 22.6266 56.0053 22.6266 54.6027C22.6266 53.8464 23.6383 53.1673 25.2436 52.7021" stroke="#333333" stroke-miterlimit="10" stroke-linecap="round" stroke-linejoin="round"/>
<path d="M24.8353 48.4427V51.7144C24.8353 53.1171 28.3151 54.254 32.6076 54.254C36.9002 54.254 40.38 53.1171 40.38 51.7144V48.4427" stroke="#333333" stroke-miterlimit="10" stroke-linecap="round" stroke-linejoin="round"/>
<path d="M37.7327 46.5333C39.3555 46.9988 40.38 47.6816 40.38 48.4427C40.38 49.8453 36.9002 50.9823 32.6077 50.9823C28.3151 50.9823 24.8353 49.8453 24.8353 48.4427C24.8353 48.1332 25.0048 47.8365 25.3151 47.5622" stroke="#333333" stroke-miterlimit="10" stroke-linecap="round" stroke-linejoin="round"/>
<path d="M22.6266 42.2827V45.5544C22.6266 46.9571 26.1064 48.0941 30.3989 48.0941C34.6915 48.0941 38.1714 46.9571 38.1714 45.5544V42.5424" stroke="#333333" stroke-miterlimit="10" stroke-linecap="round" stroke-linejoin="round"/>
<path d="M38.1312 42.5424C37.7332 43.823 34.4232 44.8224 30.3989 44.8224C26.1064 44.8224 22.6266 43.6854 22.6266 42.2827C22.6266 41.6309 23.378 41.0365 24.6132 40.5868" stroke="#333333" stroke-miterlimit="10" stroke-linecap="round" stroke-linejoin="round"/>
<path d="M24.8353 37.3802V40.652C24.8353 42.0546 28.3151 43.1917 32.6076 43.1917C36.9002 43.1917 40.38 42.0546 40.38 40.652V37.3802" stroke="#333333" stroke-miterlimit="10" stroke-linecap="round" stroke-linejoin="round"/>
<path d="M40.38 37.3803C40.38 38.7829 36.9002 39.9199 32.6077 39.9199C28.3151 39.9199 24.8353 38.7829 24.8353 37.3803C24.8353 35.9777 28.3151 34.8406 32.6077 34.8406C36.9002 34.8406 40.38 35.9777 40.38 37.3803Z" stroke="#333333" stroke-miterlimit="10" stroke-linecap="round" stroke-linejoin="round"/>
<path d="M25.3761 33.1542H27.3572" stroke="#333333" stroke-miterlimit="10" stroke-linecap="round" stroke-linejoin="round"/>
<path d="M25.3761 31.3385H27.3572" stroke="#333333" stroke-miterlimit="10" stroke-linecap="round" stroke-linejoin="round"/>
<path d="M27.3611 29.3242H27.3533" stroke="#333333" stroke-miterlimit="10" stroke-linecap="round" stroke-linejoin="round"/>
</g>
<defs>
<linearGradient id="paint0_linear_4305_235" x1="11.7463" y1="11.7911" x2="68.199" y2="68.2438" gradientUnits="userSpaceOnUse">
<stop stop-color="#E991FC"/>
<stop offset="1" stop-color="#7533D8"/>
</linearGradient>
<linearGradient id="paint1_linear_4305_235" x1="-8.41169" y1="-2.71187" x2="85.9836" y2="88.5677" gradientUnits="userSpaceOnUse">
<stop stop-color="#FFDF00"/>
<stop offset="1" stop-color="#FFB800"/>
</linearGradient>
</defs>
</svg>
