<svg width="81" height="82" viewBox="0 0 81 82" fill="none" xmlns="http://www.w3.org/2000/svg">
<g opacity="0.1">
<path d="M0.290527 41.2478C0.290527 19.1942 18.1988 1.12012 40.4182 1.12012C62.4719 1.12012 80.5459 19.0284 80.5459 41.2478C80.5459 63.3014 62.6377 81.3755 40.4182 81.3755C18.1988 81.3755 0.290527 63.3014 0.290527 41.2478Z" fill="black"/>
</g>
<path d="M40 80C62.0914 80 80 62.0914 80 40C80 17.9086 62.0914 0 40 0C17.9086 0 0 17.9086 0 40C0 62.0914 17.9086 80 40 80Z" fill="url(#paint0_linear_4305_237)"/>
<path d="M40 80C62.0914 80 80 62.0914 80 40C80 17.9086 62.0914 0 40 0C17.9086 0 0 17.9086 0 40C0 62.0914 17.9086 80 40 80Z" fill="url(#paint1_linear_4305_237)"/>
<path fill-rule="evenodd" clip-rule="evenodd" d="M21.9954 23.469C21.4931 23.469 21.0859 23.8762 21.0859 24.3784V42.5874C21.0859 42.8636 20.8621 43.0874 20.5859 43.0874C20.3098 43.0874 20.0859 42.8636 20.0859 42.5874V24.3784C20.0859 23.3239 20.9408 22.469 21.9954 22.469H58.0046C59.0592 22.469 59.9141 23.3239 59.9141 24.3784V47.9186C59.9141 48.1947 59.6902 48.4186 59.4141 48.4186H20.5859C20.3098 48.4186 20.0859 48.1947 20.0859 47.9186V45.579C20.0859 45.3029 20.3098 45.079 20.5859 45.079C20.8621 45.079 21.0859 45.3029 21.0859 45.579V47.4186H58.9141V24.3784C58.9141 23.8762 58.5069 23.469 58.0046 23.469H21.9954Z" fill="#333333"/>
<path fill-rule="evenodd" clip-rule="evenodd" d="M20.0859 47.9186C20.0859 47.6424 20.3098 47.4186 20.5859 47.4186H59.4141C59.6902 47.4186 59.9141 47.6424 59.9141 47.9186V50.6728C59.9141 51.7274 59.0592 52.5822 58.0046 52.5822H52.5163C52.2401 52.5822 52.0163 52.3584 52.0163 52.0822C52.0163 51.8061 52.2401 51.5822 52.5163 51.5822H58.0046C58.5069 51.5822 58.9141 51.1751 58.9141 50.6728V48.4186H21.0859V50.6728C21.0859 51.1751 21.4931 51.5822 21.9954 51.5822H49.7887C50.0648 51.5822 50.2887 51.8061 50.2887 52.0822C50.2887 52.3584 50.0648 52.5822 49.7887 52.5822H21.9954C20.9408 52.5822 20.0859 51.7274 20.0859 50.6728V47.9186Z" fill="#333333"/>
<path fill-rule="evenodd" clip-rule="evenodd" d="M34.1396 52.0822C34.1396 51.806 34.3635 51.5822 34.6396 51.5822H45.3604C45.6365 51.5822 45.8604 51.806 45.8604 52.0822V59.031C45.8604 59.3071 45.6365 59.531 45.3604 59.531H34.6396C34.3635 59.531 34.1396 59.3071 34.1396 59.031V52.0822ZM35.1396 52.5822V58.531H44.8604V52.5822H35.1396Z" fill="#333333"/>
<path fill-rule="evenodd" clip-rule="evenodd" d="M30.2748 59.031C30.2748 58.7549 30.4987 58.531 30.7748 58.531H49.2252C49.5013 58.531 49.7252 58.7549 49.7252 59.031C49.7252 59.3071 49.5013 59.531 49.2252 59.531H30.7748C30.4987 59.531 30.2748 59.3071 30.2748 59.031Z" fill="#333333"/>
<path fill-rule="evenodd" clip-rule="evenodd" d="M30.8061 29.9455C30.9419 29.7217 31.2274 29.6405 31.4607 29.7595L40.2273 34.2287C40.3948 34.314 40.5002 34.4861 40.5002 34.6741V45.4306C40.5002 45.7068 40.2764 45.9306 40.0002 45.9306C39.7249 45.9306 39.4502 45.8659 39.1982 45.7373C39.1982 45.7373 39.1981 45.7373 39.1981 45.7373C39.1981 45.7372 39.198 45.7372 39.198 45.7372L31.5335 41.8298C31.5335 41.8298 31.5334 41.8298 31.5334 41.8297C30.9152 41.5148 30.5338 40.8698 30.5338 40.1755V30.9223C30.5338 30.571 30.6311 30.234 30.8061 29.9455ZM31.5338 30.9192C31.5338 30.9202 31.5338 30.9213 31.5338 30.9223V40.1755C31.5338 40.5074 31.7162 40.8006 31.9874 40.9387L31.9875 40.9388L39.5002 44.7688V34.9805L31.5338 30.9192Z" fill="#333333"/>
<path fill-rule="evenodd" clip-rule="evenodd" d="M48.5392 29.7595C48.7724 29.6406 49.0579 29.7217 49.1937 29.9454C49.3689 30.2339 49.4662 30.571 49.4662 30.9223V40.1755C49.4662 40.8697 49.0852 41.5149 48.4663 41.8299L40.8024 45.7372C40.5503 45.8658 40.2756 45.9306 40.0002 45.9306C39.724 45.9306 39.5002 45.7068 39.5002 45.4306V34.6741C39.5002 34.4861 39.6056 34.3141 39.7731 34.2287L48.5392 29.7595ZM40.5002 34.9804V44.7688L48.0124 40.9388L48.0128 40.9387C48.284 40.8007 48.4662 40.5076 48.4662 40.1755V30.9223C48.4662 30.9213 48.4662 30.9202 48.4662 30.9192L40.5002 34.9804Z" fill="#333333"/>
<path fill-rule="evenodd" clip-rule="evenodd" d="M40.3627 26.0489C40.1361 25.927 39.8683 25.9264 39.6409 26.0472C39.6394 26.048 39.6378 26.0488 39.6363 26.0496L39.6353 26.0501C39.6337 26.051 39.632 26.0519 39.6302 26.0528L37.0815 27.4216C36.8382 27.5523 36.5351 27.461 36.4044 27.2177C36.2738 26.9744 36.3651 26.6713 36.6083 26.5406L39.1639 25.1681C39.1661 25.1669 39.1683 25.1658 39.1706 25.1646L39.1716 25.164C39.1739 25.1628 39.1765 25.1615 39.1794 25.16C39.6998 24.8868 40.3179 24.8892 40.8365 25.1683L48.5001 29.2854C48.5003 29.2854 48.5004 29.2855 48.5005 29.2856C48.7918 29.4417 49.0285 29.6728 49.1939 29.9455C49.2661 30.0644 49.2854 30.2079 49.2474 30.3416C49.2094 30.4753 49.1174 30.5872 48.9936 30.6503L40.2274 35.1195C40.0847 35.1923 39.9159 35.1923 39.7732 35.1195L31.0065 30.6502C30.8825 30.587 30.7905 30.475 30.7525 30.3412C30.7146 30.2073 30.7341 30.0637 30.8065 29.9448C30.9719 29.673 31.2078 29.4418 31.4997 29.2854C31.4998 29.2854 31.4999 29.2853 31.5 29.2852L33.9661 27.9604C34.2094 27.8297 34.5125 27.921 34.6432 28.1643C34.7739 28.4075 34.6826 28.7107 34.4393 28.8413L32.1122 30.0915L40.0003 34.1129L47.8878 30.0916L40.363 26.0491L40.3627 26.0489ZM39.6486 26.0429C39.6496 26.0423 39.6506 26.0417 39.6511 26.0414L39.6503 26.0419" fill="#333333"/>
<path fill-rule="evenodd" clip-rule="evenodd" d="M46.4257 25.5162C46.5152 25.4426 46.6275 25.4023 46.7434 25.4023H51.8698C52.146 25.4023 52.3698 25.6262 52.3698 25.9023C52.3698 26.1785 52.146 26.4023 51.8698 26.4023H46.9226L43.1173 29.5334C42.9041 29.7089 42.589 29.6783 42.4135 29.465C42.2381 29.2518 42.2687 28.9367 42.4819 28.7612L46.4257 25.5162Z" fill="#333333"/>
<path fill-rule="evenodd" clip-rule="evenodd" d="M43.012 40.6464C43.2072 40.4512 43.5238 40.4512 43.7191 40.6464L47.8076 44.735H52.0103C52.2864 44.735 52.5103 44.9589 52.5103 45.235C52.5103 45.5111 52.2864 45.735 52.0103 45.735H47.6005C47.4679 45.735 47.3408 45.6823 47.247 45.5886L43.012 41.3536C42.8167 41.1583 42.8167 40.8417 43.012 40.6464Z" fill="#333333"/>
<path fill-rule="evenodd" clip-rule="evenodd" d="M27.4427 39.3759C27.4427 39.0997 27.6665 38.8759 27.9427 38.8759H34.3248C34.601 38.8759 34.8248 39.0997 34.8248 39.3759C34.8248 39.652 34.601 39.8759 34.3248 39.8759H27.9427C27.6665 39.8759 27.4427 39.652 27.4427 39.3759Z" fill="#333333"/>
<path fill-rule="evenodd" clip-rule="evenodd" d="M52.0459 26.4023C51.8548 26.4023 51.6999 26.5573 51.6999 26.7484V31.5316C51.6999 31.7227 51.8549 31.8776 52.0459 31.8776H56.3382C56.5293 31.8776 56.6842 31.7227 56.6842 31.5316V26.7484C56.6842 26.5573 56.5293 26.4023 56.3382 26.4023H52.0459ZM50.6999 26.7484C50.6999 26.0051 51.3025 25.4023 52.0459 25.4023H56.3382C57.0815 25.4023 57.6842 26.0049 57.6842 26.7484V31.5316C57.6842 32.275 57.0816 32.8776 56.3382 32.8776H52.0459C51.3026 32.8776 50.6999 32.275 50.6999 31.5316V26.7484Z" fill="#333333"/>
<path fill-rule="evenodd" clip-rule="evenodd" d="M52.6175 28.0695C52.6175 27.7933 52.8414 27.5695 53.1175 27.5695H55.3172C55.5933 27.5695 55.8172 27.7933 55.8172 28.0695C55.8172 28.3456 55.5933 28.5695 55.3172 28.5695H53.1175C52.8414 28.5695 52.6175 28.3456 52.6175 28.0695Z" fill="#333333"/>
<path fill-rule="evenodd" clip-rule="evenodd" d="M52.6175 30.2104C52.6175 29.9343 52.8414 29.7104 53.1175 29.7104H55.3172C55.5933 29.7104 55.8172 29.9343 55.8172 30.2104C55.8172 30.4866 55.5933 30.7104 55.3172 30.7104H53.1175C52.8414 30.7104 52.6175 30.4866 52.6175 30.2104Z" fill="#333333"/>
<path fill-rule="evenodd" clip-rule="evenodd" d="M52.0459 39.2598C51.8548 39.2598 51.6999 39.4147 51.6999 39.6058V44.389C51.6999 44.5801 51.8549 44.735 52.0459 44.735H56.3382C56.5293 44.735 56.6842 44.5801 56.6842 44.389V39.6058C56.6842 39.4147 56.5293 39.2598 56.3382 39.2598H52.0459ZM50.6999 39.6058C50.6999 38.8625 51.3025 38.2598 52.0459 38.2598H56.3382C57.0815 38.2598 57.6842 38.8623 57.6842 39.6058V44.389C57.6842 45.1324 57.0816 45.735 56.3382 45.735H52.0459C51.3026 45.735 50.6999 45.1324 50.6999 44.389V39.6058Z" fill="#333333"/>
<path fill-rule="evenodd" clip-rule="evenodd" d="M52.6175 40.9269C52.6175 40.6507 52.8414 40.4269 53.1175 40.4269H55.3172C55.5933 40.4269 55.8172 40.6507 55.8172 40.9269C55.8172 41.203 55.5933 41.4269 55.3172 41.4269H53.1175C52.8414 41.4269 52.6175 41.203 52.6175 40.9269Z" fill="#333333"/>
<path fill-rule="evenodd" clip-rule="evenodd" d="M52.6175 43.0679C52.6175 42.7917 52.8414 42.5679 53.1175 42.5679H55.3172C55.5933 42.5679 55.8172 42.7917 55.8172 43.0679C55.8172 43.344 55.5933 43.5679 55.3172 43.5679H53.1175C52.8414 43.5679 52.6175 43.344 52.6175 43.0679Z" fill="#333333"/>
<path fill-rule="evenodd" clip-rule="evenodd" d="M23.6504 33.4006C23.4593 33.4006 23.3044 33.5556 23.3044 33.7466V38.5299C23.3044 38.7209 23.4593 38.8759 23.6504 38.8759H27.9427C28.1336 38.8759 28.2886 38.721 28.2887 38.5299C28.2887 38.5298 28.2887 38.5299 28.2887 38.5299V33.7466C28.2887 33.5556 28.1337 33.4006 27.9427 33.4006H23.6504ZM22.3044 33.7466C22.3044 33.0033 22.907 32.4006 23.6504 32.4006H27.9427C28.686 32.4006 29.2887 33.0032 29.2887 33.7466V38.5299C29.2886 39.2732 28.686 39.8759 27.9427 39.8759H23.6504C22.9071 39.8759 22.3044 39.2733 22.3044 38.5299V33.7466Z" fill="#333333"/>
<path fill-rule="evenodd" clip-rule="evenodd" d="M24.222 35.0679C24.222 34.7917 24.4458 34.5679 24.722 34.5679H26.9216C27.1978 34.5679 27.4216 34.7917 27.4216 35.0679C27.4216 35.344 27.1978 35.5679 26.9216 35.5679H24.722C24.4458 35.5679 24.222 35.344 24.222 35.0679Z" fill="#333333"/>
<path fill-rule="evenodd" clip-rule="evenodd" d="M24.222 37.2089C24.222 36.9327 24.4458 36.7089 24.722 36.7089H26.9216C27.1978 36.7089 27.4216 36.9327 27.4216 37.2089C27.4216 37.485 27.1978 37.7089 26.9216 37.7089H24.722C24.4458 37.7089 24.222 37.485 24.222 37.2089Z" fill="#333333"/>
<path fill-rule="evenodd" clip-rule="evenodd" d="M22.3044 25.8761C22.3044 25.6 22.5282 25.3761 22.8044 25.3761H26.9216C27.1978 25.3761 27.4216 25.6 27.4216 25.8761C27.4216 26.1522 27.1978 26.3761 26.9216 26.3761H22.8044C22.5282 26.3761 22.3044 26.1522 22.3044 25.8761Z" fill="#333333"/>
<path fill-rule="evenodd" clip-rule="evenodd" d="M22.3044 28.0405C22.3044 27.7644 22.5282 27.5405 22.8044 27.5405H25.7965C26.0726 27.5405 26.2965 27.7644 26.2965 28.0405C26.2965 28.3167 26.0726 28.5405 25.7965 28.5405H22.8044C22.5282 28.5405 22.3044 28.3167 22.3044 28.0405Z" fill="#333333"/>
<path fill-rule="evenodd" clip-rule="evenodd" d="M22.3044 30.2048C22.3044 29.9287 22.5282 29.7048 22.8044 29.7048H28.2757C28.5519 29.7048 28.7757 29.9287 28.7757 30.2048C28.7757 30.481 28.5519 30.7048 28.2757 30.7048H22.8044C22.5282 30.7048 22.3044 30.481 22.3044 30.2048Z" fill="#333333"/>
<path fill-rule="evenodd" clip-rule="evenodd" d="M55.9698 47.4186C56.2459 47.4186 56.4698 47.6424 56.4698 47.9186V49.6704C56.4698 49.9465 56.2459 50.1704 55.9698 50.1704C55.6936 50.1704 55.4698 49.9465 55.4698 49.6704V47.9186C55.4698 47.6424 55.6936 47.4186 55.9698 47.4186Z" fill="#333333"/>
<defs>
<linearGradient id="paint0_linear_4305_237" x1="11.7463" y1="11.7737" x2="68.199" y2="68.2264" gradientUnits="userSpaceOnUse">
<stop stop-color="#E991FC"/>
<stop offset="1" stop-color="#7533D8"/>
</linearGradient>
<linearGradient id="paint1_linear_4305_237" x1="-8.41169" y1="-2.71187" x2="85.9836" y2="88.5676" gradientUnits="userSpaceOnUse">
<stop stop-color="#FFDF00"/>
<stop offset="1" stop-color="#FFB800"/>
</linearGradient>
</defs>
</svg>
