<svg width="81" height="82" viewBox="0 0 81 82" fill="none" xmlns="http://www.w3.org/2000/svg">
<g opacity="0.1">
<path d="M0.127197 40.9907C0.127197 18.9371 18.0354 0.863037 40.2549 0.863037C62.3085 0.863037 80.3826 18.7713 80.3826 40.9907C80.3826 63.0444 62.4743 81.1184 40.2549 81.1184C18.0354 80.9526 0.127197 63.0444 0.127197 40.9907Z" fill="black"/>
</g>
<path d="M40 80C62.0914 80 80 62.0914 80 40C80 17.9086 62.0914 0 40 0C17.9086 0 0 17.9086 0 40C0 62.0914 17.9086 80 40 80Z" fill="url(#paint0_linear_4305_238)"/>
<path d="M40 80C62.0914 80 80 62.0914 80 40C80 17.9086 62.0914 0 40 0C17.9086 0 0 17.9086 0 40C0 62.0914 17.9086 80 40 80Z" fill="url(#paint1_linear_4305_238)"/>
<g clip-path="url(#clip0_4305_238)">
<path d="M59.3951 53.6635C59.0718 53.6635 58.8098 53.9255 58.8098 54.2488V60.3756C58.8098 61.1306 59.9805 61.1306 59.9805 60.3756V54.2488C59.9805 53.9255 59.7185 53.6635 59.3951 53.6635Z" fill="#333333"/>
<path d="M59.3951 40.4619H54.7985V38.3512H56.2042C57.06 38.3512 57.7561 37.6551 57.7561 36.7993V22.5519C57.7561 21.6962 57.06 21 56.2042 21H34.3656C33.5098 21 32.8137 21.6962 32.8137 22.5519V24.6537C32.8137 25.4087 33.9845 25.4087 33.9845 24.6537V22.5519C33.9845 22.3417 34.1554 22.1707 34.3656 22.1707H56.2043C56.4144 22.1707 56.5854 22.3417 56.5854 22.5519V33.9025H54.7986V27.6658C54.7986 27.4727 54.7033 27.292 54.5439 27.1829C54.3846 27.0738 54.1817 27.0503 54.0015 27.12C53.8484 27.1794 50.6189 28.4983 49.9316 33.9024H33.9845V27.6975C33.9845 26.9426 32.8137 26.9426 32.8137 27.6975V36.7993C32.8137 37.6551 33.5098 38.3512 34.3656 38.3512H42.2287V40.4619H28.9378C30.2344 39.1667 30.361 37.1158 30.361 35.3927C30.361 35.0694 30.099 34.8073 29.7756 34.8073H26.6146V33.7022C28.4925 34.1013 30.5395 32.5614 30.5145 30.608C30.5111 30.3463 30.4787 30.0805 30.2369 29.9209C29.1251 29.187 27.5937 29.4928 26.6146 30.2942V29.2383C28.2874 28.0837 28.4117 25.3648 26.8042 24.0957C26.6423 23.9679 26.4631 23.8462 26.2708 23.7678C25.4458 23.431 24.5388 24.9006 24.3422 25.4678C23.8778 26.8082 24.2979 28.3499 25.4438 29.2004V30.2877C24.6924 29.6764 23.7111 29.3749 22.7525 29.5669C22.3563 29.6462 21.662 29.8255 21.5756 30.3058C21.2043 32.3722 23.5452 34.1023 25.4439 33.7039V34.8073H22.0488C21.7254 34.8073 21.4634 35.0694 21.4634 35.3927C21.4634 37.1134 21.5567 39.1669 22.8531 40.4619H20.6049C20.2815 40.4619 20.0195 40.7239 20.0195 41.0472V60.3756C20.0195 61.1306 21.1902 61.1306 21.1902 60.3756V57.6439H31.7658V60.3756C31.7658 61.1306 32.9366 61.1306 32.9366 60.3756V45.4683H53.6363C53.6393 45.6722 53.6588 46.7708 53.6613 47.1H43.7546C41.4404 47.1 39.7257 47.7024 38.6582 48.8903C37.3765 50.3166 37.5452 52.0455 37.5531 52.1184C37.5849 52.4158 37.8359 52.6414 38.1351 52.6414H45.6975V53.695H43.3951C42.6401 53.695 42.6401 54.8658 43.3951 54.8658H45.6975V59.7902H38.2049C37.4499 59.7902 37.4499 60.961 38.2049 60.961H46.0741C46.1391 60.9858 46.2092 61 46.2829 61C46.3566 61 46.4268 60.9858 46.4917 60.961H54.361C55.1159 60.961 55.1159 59.7902 54.361 59.7902H46.8683V52.6414H50.779C52.1228 52.6414 53.0942 52.3175 53.7489 51.651C54.8961 50.483 54.8612 48.5273 54.8169 46.0512C54.8135 45.8597 54.8101 45.6649 54.8072 45.4682H58.8097V50.9707C58.8097 51.7257 59.9805 51.7257 59.9805 50.9707V41.0472C59.9805 40.7239 59.7185 40.4619 59.3951 40.4619ZM27.5923 31.029C28.3456 30.551 29.001 30.6636 29.3422 30.7841C29.2392 31.9975 27.764 32.8805 26.6364 32.4983C26.6837 32.1228 26.8743 31.4844 27.5923 31.029ZM23.7014 32.2466C23.204 31.931 22.781 31.3877 22.7263 30.7838C23.8986 30.3717 25.2772 31.2847 25.4299 32.4983C24.8613 32.6911 24.1998 32.5628 23.7014 32.2466ZM26.0595 24.9937C27.0398 25.7394 26.9958 27.4412 26.056 28.1979C25.7661 27.9595 25.3287 27.4579 25.3287 26.6025C25.3286 25.7104 25.7749 25.2174 26.0595 24.9937ZM22.6424 35.978H29.1814C29.0823 39.1402 28.1385 40.3878 25.9121 40.3878C23.6552 40.3879 22.7373 39.1804 22.6424 35.978ZM52.9137 50.8306C52.4906 51.2614 51.7924 51.4707 50.779 51.4707H38.7327C38.7869 51.0034 38.9673 50.298 39.529 49.6729C40.3651 48.7424 41.7868 48.2707 43.7547 48.2707H53.6463C53.5979 49.418 53.4245 50.3107 52.9137 50.8306ZM56.5854 35.0732V36.7994C56.5854 37.0096 56.4144 37.1805 56.2042 37.1805H54.7985V35.0732H56.5854ZM52.7123 29.6914C53.031 29.2703 53.3515 28.9569 53.6278 28.7296V43.3921C53.3524 43.1562 53.0343 42.8344 52.7178 42.407C51.5771 40.8664 50.9741 38.6568 50.9741 36.017C50.9741 33.381 51.5752 31.1936 52.7123 29.6914ZM49.9608 38.3513C50.0726 39.1392 50.2381 39.8402 50.4399 40.4619H48.3411V38.3513H49.9608ZM33.9845 36.7993V35.0731H49.8278C49.7912 35.7749 49.7954 36.4792 49.841 37.1804H34.3656C34.1554 37.1805 33.9845 37.0095 33.9845 36.7993ZM43.3994 38.3513H47.1704V40.4619H43.3994V38.3513ZM50.8996 41.6326C51.5095 42.936 52.2667 43.778 52.8793 44.2976H21.1902V41.6326H50.8996ZM21.1902 56.4732V51.5561H31.7658V56.4732H21.1902ZM31.7658 50.3854H21.1902V45.4683H31.7658V50.3854ZM54.7985 44.2976V41.6326H58.8097V44.2976H54.7985Z" fill="#333333"/>
<path d="M24.2732 48.5122H28.7219C29.4769 48.5122 29.4769 47.3414 28.7219 47.3414H24.2732C23.5182 47.3414 23.5182 48.5122 24.2732 48.5122Z" fill="#333333"/>
<path d="M28.7219 53.4293H24.2732C23.5182 53.4293 23.5182 54.6001 24.2732 54.6001H28.7219C29.4769 54.6001 29.4769 53.4293 28.7219 53.4293Z" fill="#333333"/>
</g>
<defs>
<linearGradient id="paint0_linear_4305_238" x1="11.7463" y1="11.765" x2="68.199" y2="68.2177" gradientUnits="userSpaceOnUse">
<stop stop-color="#E991FC"/>
<stop offset="1" stop-color="#7533D8"/>
</linearGradient>
<linearGradient id="paint1_linear_4305_238" x1="-8.41169" y1="-2.71187" x2="85.9836" y2="88.5677" gradientUnits="userSpaceOnUse">
<stop stop-color="#FFDF00"/>
<stop offset="1" stop-color="#FFB800"/>
</linearGradient>
<clipPath id="clip0_4305_238">
<rect width="40" height="40" fill="white" transform="translate(20 21)"/>
</clipPath>
</defs>
</svg>
