<svg width="148" height="16" viewBox="0 0 148 16" fill="none" xmlns="http://www.w3.org/2000/svg">
<path opacity="0.2" d="M16 8C16 12.4058 12.4058 16 8 16C3.5942 16 -1.57107e-07 12.4058 -3.49691e-07 8C-5.42275e-07 3.5942 3.5942 -1.57107e-07 8 -3.49691e-07C12.4058 -5.42275e-07 16 3.5942 16 8ZM1.62318 8C1.62318 11.5362 4.52174 14.3768 8 14.3768C11.5362 14.3768 14.3768 11.4783 14.3768 8C14.3768 4.46377 11.4783 1.62319 8 1.62319C4.52174 1.62319 1.62318 4.46377 1.62318 8Z" fill="#333333"/>
<path opacity="0.2" d="M49 8C49 12.4058 45.4058 16 41 16C36.5942 16 33 12.4058 33 8C33 3.59421 36.5942 -1.57107e-07 41 -3.49691e-07C45.4058 -5.42275e-07 49 3.59421 49 8ZM34.6232 8C34.6232 11.5362 37.5217 14.3768 41 14.3768C44.5362 14.3768 47.3768 11.4783 47.3768 8C47.3768 4.46377 44.4783 1.62319 41 1.62319C37.5217 1.62319 34.6232 4.46377 34.6232 8Z" fill="#333333"/>
<path d="M73.9997 16C69.5917 16 66 12.4083 66 8.00031C66 3.59232 69.5917 0.000619731 73.9997 0.000619539C78.4077 0.000619346 81.9994 3.59232 81.9994 8.00031C82.0538 12.4083 78.4621 16 73.9997 16Z" fill="#FFD00E"/>
<path opacity="0.2" d="M115 8C115 12.4058 111.406 16 107 16C102.594 16 99 12.4058 99 8C99 3.59421 102.594 -1.57107e-07 107 -3.49691e-07C111.406 -5.42275e-07 115 3.59421 115 8ZM100.623 8C100.623 11.5362 103.522 14.3768 107 14.3768C110.536 14.3768 113.377 11.4783 113.377 8C113.377 4.46377 110.478 1.62319 107 1.62319C103.522 1.62319 100.623 4.46377 100.623 8Z" fill="#333333"/>
<path opacity="0.2" d="M148 8C148 12.4058 144.406 16 140 16C135.594 16 132 12.4058 132 8C132 3.59421 135.594 -1.57107e-07 140 -3.49691e-07C144.406 -5.42275e-07 148 3.59421 148 8ZM133.623 8C133.623 11.5362 136.522 14.3768 140 14.3768C143.536 14.3768 146.377 11.4783 146.377 8C146.377 4.46377 143.478 1.62319 140 1.62319C136.522 1.62319 133.623 4.46377 133.623 8Z" fill="#333333"/>
</svg>
